<svg width="25" height="25" viewBox="0 0 25 25" fill="none" xmlns="http://www.w3.org/2000/svg">
<path d="M13.7857 0.5C15.192 0.5036 15.9057 0.5108 16.522 0.527599L16.7645 0.535999C17.0445 0.545599 17.3207 0.557599 17.6545 0.571998C18.9845 0.631997 19.892 0.833592 20.6882 1.12998C21.5132 1.43478 22.2082 1.84757 22.9032 2.51355C23.5391 3.11322 24.0309 3.83889 24.3445 4.6399C24.6532 5.40428 24.8632 6.27546 24.9257 7.55343C24.9407 7.87262 24.9532 8.13782 24.9632 8.40781L24.9707 8.6406C24.9895 9.23099 24.997 9.91617 24.9995 11.2661L25.0007 12.1613V13.7333C25.0038 14.6085 24.9942 15.4838 24.972 16.3588L24.9645 16.5916C24.9545 16.8616 24.942 17.1268 24.927 17.446C24.8645 18.724 24.652 19.5939 24.3445 20.3595C24.0309 21.1605 23.5391 21.8862 22.9032 22.4859C22.2785 23.0963 21.5226 23.5685 20.6882 23.8694C19.892 24.1658 18.9845 24.3674 17.6545 24.4274L16.7645 24.4634L16.522 24.4706C15.9057 24.4874 15.192 24.4958 13.7857 24.4982L12.8532 24.4994H11.217C10.3048 24.5025 9.39262 24.4933 8.48071 24.4718L8.23821 24.4646C7.94147 24.4538 7.6448 24.4414 7.34821 24.4274C6.01821 24.3674 5.11071 24.1658 4.31321 23.8694C3.47925 23.5683 2.72376 23.0961 2.09946 22.4859C1.46314 21.8863 0.970847 21.1606 0.656961 20.3595C0.348211 19.5951 0.138211 18.724 0.0757109 17.446L0.038211 16.5916L0.0319611 16.3588C0.00891867 15.4838 -0.00149912 14.6086 0.000710996 13.7333V11.2661C-0.00274887 10.3909 0.00641877 9.51562 0.0282111 8.6406L0.0369611 8.40781C0.0469611 8.13782 0.059461 7.87262 0.074461 7.55343C0.136961 6.27546 0.346961 5.40548 0.655711 4.6399C0.970329 3.83856 1.46349 3.11286 2.10071 2.51355C2.72465 1.90342 3.4797 1.43127 4.31321 1.12998C5.11071 0.833592 6.01696 0.631997 7.34821 0.571998C7.68071 0.557599 7.95821 0.545599 8.23821 0.535999L8.48071 0.528799C9.3922 0.507479 10.304 0.498278 11.2157 0.5012L13.7857 0.5ZM12.5007 6.49986C10.8431 6.49986 9.2534 7.13198 8.08129 8.25717C6.90919 9.38236 6.25071 10.9084 6.25071 12.4997C6.25071 14.091 6.90919 15.6171 8.08129 16.7422C9.2534 17.8674 10.8431 18.4996 12.5007 18.4996C14.1583 18.4996 15.748 17.8674 16.9201 16.7422C18.0922 15.6171 18.7507 14.091 18.7507 12.4997C18.7507 10.9084 18.0922 9.38236 16.9201 8.25717C15.748 7.13198 14.1583 6.49986 12.5007 6.49986ZM12.5007 8.8998C12.9932 8.89972 13.4808 8.99275 13.9358 9.17359C14.3908 9.35443 14.8043 9.61954 15.1525 9.95376C15.5008 10.288 15.7771 10.6848 15.9656 11.1215C16.1542 11.5583 16.2513 12.0264 16.2513 12.4991C16.2514 12.9719 16.1545 13.44 15.9661 13.8768C15.7777 14.3136 15.5016 14.7105 15.1534 15.0448C14.8053 15.3791 14.3919 15.6444 13.937 15.8254C13.482 16.0064 12.9944 16.0995 12.502 16.0996C11.5074 16.0996 10.5536 15.7203 9.85031 15.0452C9.14705 14.3701 8.75196 13.4545 8.75196 12.4997C8.75196 11.545 9.14705 10.6293 9.85031 9.95419C10.5536 9.27907 11.5074 8.8998 12.502 8.8998M19.0645 4.6999C18.6501 4.6999 18.2526 4.85793 17.9596 5.13923C17.6666 5.42053 17.502 5.80205 17.502 6.19986C17.502 6.59768 17.6666 6.9792 17.9596 7.2605C18.2526 7.54179 18.6501 7.69983 19.0645 7.69983C19.4789 7.69983 19.8763 7.54179 20.1693 7.2605C20.4623 6.9792 20.627 6.59768 20.627 6.19986C20.627 5.80205 20.4623 5.42053 20.1693 5.13923C19.8763 4.85793 19.4789 4.6999 19.0645 4.6999Z" fill="#F8F8FF"/>
</svg>
