<svg width="27" height="25" viewBox="0 0 27 25" fill="none" xmlns="http://www.w3.org/2000/svg">
<path d="M5.87747 25H0.435283V8.30893H5.87747V25ZM3.1531 6.03214C1.4131 6.03214 0.0012207 4.65893 0.0012207 3.00179C0.0012207 2.20566 0.333292 1.44215 0.924384 0.879203C1.51547 0.316259 2.31717 0 3.1531 0C3.98902 0 4.79072 0.316259 5.38181 0.879203C5.9729 1.44215 6.30497 2.20566 6.30497 3.00179C6.30497 4.65893 4.8931 6.03214 3.1531 6.03214ZM26.2456 25H20.8156V16.875C20.8156 14.9384 20.7743 12.4554 17.9862 12.4554C15.1568 12.4554 14.7228 14.5589 14.7228 16.7357V25H9.28622V8.30893H14.5053V10.5857H14.5812C15.3078 9.27411 17.0825 7.89018 19.73 7.89018C25.2378 7.89018 26.2503 11.3446 26.2503 15.8313V25H26.2456Z" fill="#F8F8FF"/>
</svg>
