<svg width="21" height="20" viewBox="0 0 21 20" fill="none" xmlns="http://www.w3.org/2000/svg">
<g id="google_symbol.svg">
<path id="Vector" d="M19.3 10.2083C19.3 9.55833 19.2417 8.93333 19.1333 8.33333H10.5V11.8792H15.4333C15.2208 13.025 14.575 13.9958 13.6042 14.6458V16.9458H16.5667C18.3 15.35 19.3 13 19.3 10.2083Z" fill="#717171"/>
<path id="Vector_2" d="M10.5 19.1667C12.975 19.1667 15.05 18.3458 16.5667 16.9458L13.6042 14.6458C12.7833 15.1958 11.7333 15.5208 10.5 15.5208C8.11252 15.5208 6.09168 13.9083 5.37085 11.7417H2.30835V14.1167C3.81668 17.1125 6.91668 19.1667 10.5 19.1667Z" fill="#717171"/>
<path id="Vector_3" d="M5.37087 11.7417C5.18754 11.1917 5.08337 10.6042 5.08337 10C5.08337 9.39583 5.18754 8.80833 5.37087 8.25833V5.88333H2.30837C1.66671 7.16071 1.33281 8.57051 1.33337 10C1.33337 11.4792 1.68754 12.8792 2.30837 14.1167L5.37087 11.7417Z" fill="#717171"/>
<path id="Vector_4" d="M10.5 4.47916C11.8458 4.47916 13.0542 4.94166 14.0042 5.85L16.6333 3.22083C15.0458 1.74166 12.9708 0.833328 10.5 0.833328C6.91668 0.833328 3.81668 2.8875 2.30835 5.88333L5.37085 8.25833C6.09168 6.09166 8.11252 4.47916 10.5 4.47916Z" fill="#717171"/>
</g>
</svg>
