<svg width="14" height="25" viewBox="0 0 14 25" fill="none" xmlns="http://www.w3.org/2000/svg">
<path id="Vector" d="M11.2258 23.9677L0.354839 13.129C0.225806 13 0.134624 12.8602 0.0812903 12.7097C0.0270968 12.5591 0 12.3979 0 12.2258C0 12.0538 0.0270968 11.8925 0.0812903 11.7419C0.134624 11.5914 0.225806 11.4516 0.354839 11.3226L11.2258 0.451613C11.5269 0.150538 11.9032 0 12.3548 0C12.8065 0 13.1935 0.16129 13.5161 0.483871C13.8387 0.806452 14 1.1828 14 1.6129C14 2.04301 13.8387 2.41935 13.5161 2.74194L4.03226 12.2258L13.5161 21.7097C13.8172 22.0108 13.9677 22.3815 13.9677 22.8219C13.9677 23.2632 13.8065 23.6452 13.4839 23.9677C13.1613 24.2903 12.7849 24.4516 12.3548 24.4516C11.9247 24.4516 11.5484 24.2903 11.2258 23.9677Z" fill="#46467C"/>
</svg>
