<svg width="18" height="24" viewBox="0 0 18 24" fill="none" xmlns="http://www.w3.org/2000/svg">
<path d="M6.15625 14.5L9 12.7812L11.8438 14.5L11.0938 11.25L13.5938 9.09375L10.3125 8.8125L9 5.75L7.6875 8.8125L4.40625 9.09375L6.90625 11.25L6.15625 14.5ZM0.25 23.25V3.25C0.25 2.5625 0.495 1.97417 0.985 1.485C1.475 0.995833 2.06333 0.750833 2.75 0.75H15.25C15.9375 0.75 16.5263 0.995 17.0163 1.485C17.5063 1.975 17.7508 2.56333 17.75 3.25V23.25L9 19.5L0.25 23.25ZM2.75 19.4375L9 16.75L15.25 19.4375V3.25H2.75V19.4375Z" fill="#46467C"/>
</svg>
