<svg width="23" height="33" viewBox="0 0 23 33" fill="none" xmlns="http://www.w3.org/2000/svg">
<g filter="url(#filter0_d_717_228)">
<path d="M15.6873 24.5053L4.36943 13.4235C4.23509 13.2916 4.14016 13.1486 4.08463 12.9947C4.02821 12.8408 4 12.6759 4 12.5C4 12.3241 4.02821 12.1592 4.08463 12.0053C4.14016 11.8514 4.23509 11.7084 4.36943 11.5765L15.6873 0.461741C16.0008 0.153914 16.3926 0 16.8628 0C17.333 0 17.736 0.164908 18.0718 0.494723C18.4077 0.824538 18.5756 1.20932 18.5756 1.64908C18.5756 2.08883 18.4077 2.47361 18.0718 2.80343L8.19804 12.5L18.0718 22.1966C18.3853 22.5044 18.542 22.8835 18.542 23.3338C18.542 23.785 18.3741 24.1755 18.0382 24.5053C17.7024 24.8351 17.3106 25 16.8628 25C16.415 25 16.0232 24.8351 15.6873 24.5053Z" fill="#D0D0FF"/>
</g>
<defs>
<filter id="filter0_d_717_228" x="0" y="0" width="22.5756" height="33" filterUnits="userSpaceOnUse" color-interpolation-filters="sRGB">
<feFlood flood-opacity="0" result="BackgroundImageFix"/>
<feColorMatrix in="SourceAlpha" type="matrix" values="0 0 0 0 0 0 0 0 0 0 0 0 0 0 0 0 0 0 127 0" result="hardAlpha"/>
<feOffset dy="4"/>
<feGaussianBlur stdDeviation="2"/>
<feComposite in2="hardAlpha" operator="out"/>
<feColorMatrix type="matrix" values="0 0 0 0 0 0 0 0 0 0 0 0 0 0 0 0 0 0 0.25 0"/>
<feBlend mode="normal" in2="BackgroundImageFix" result="effect1_dropShadow_717_228"/>
<feBlend mode="normal" in="SourceGraphic" in2="effect1_dropShadow_717_228" result="shape"/>
</filter>
</defs>
</svg>
