<svg width="22" height="22" viewBox="0 0 22 22" fill="none" xmlns="http://www.w3.org/2000/svg">
<path d="M20.1538 8.9283L20.1465 8.84763C20.0652 7.69188 19.5495 6.60973 18.703 5.81866C17.8565 5.02759 16.7419 4.58623 15.5833 4.5833H6.41667C5.24181 4.57799 4.11032 5.02676 3.25848 5.83589C2.40664 6.64503 1.90032 7.75197 1.84525 8.92555C1.8367 8.99705 1.83272 9.07435 1.83334 9.15746V15.125C1.83334 15.9729 2.17525 16.8006 2.77017 17.3946C3.37385 17.9949 4.19032 18.3323 5.04167 18.3333C6.69167 18.3333 7.337 17.4166 8.25 15.5833C8.38384 15.3156 9.15934 13.75 11 13.75C12.8297 13.75 13.6153 15.3147 13.75 15.5833C14.6703 17.4166 15.3083 18.3333 16.9583 18.3333C17.8063 18.3333 18.634 17.9914 19.228 17.3965C19.8283 16.7928 20.1657 15.9763 20.1667 15.125V9.16663C20.1667 9.08047 20.1624 9.00102 20.1538 8.9283ZM6.41667 11.0284C6.17252 11.0339 5.92974 10.9906 5.70256 10.901C5.47539 10.8114 5.2684 10.6773 5.09376 10.5066C4.91912 10.3359 4.78034 10.1321 4.68557 9.90698C4.5908 9.68192 4.54195 9.44018 4.54189 9.19598C4.54183 8.95177 4.59056 8.71001 4.68521 8.4849C4.77987 8.25978 4.91855 8.05585 5.0931 7.88506C5.26766 7.71428 5.47458 7.58009 5.70171 7.49038C5.92884 7.40067 6.17161 7.35723 6.41575 7.36263C6.89477 7.37322 7.3506 7.57092 7.68567 7.9134C8.02075 8.25588 8.20843 8.71593 8.20855 9.19506C8.20867 9.67419 8.02122 10.1343 7.68632 10.477C7.35141 10.8196 6.89568 11.0175 6.41667 11.0284ZM15.5833 6.44505C15.8264 6.44505 16.0596 6.54163 16.2315 6.71353C16.4034 6.88544 16.5 7.1186 16.5 7.36172C16.5 7.60483 16.4034 7.83799 16.2315 8.0099C16.0596 8.1818 15.8264 8.27838 15.5833 8.27838C15.3402 8.27838 15.1071 8.1818 14.9352 8.0099C14.7632 7.83799 14.6667 7.60483 14.6667 7.36172C14.6667 7.1186 14.7632 6.88544 14.9352 6.71353C15.1071 6.54163 15.3402 6.44505 15.5833 6.44505ZM13.75 10.1117C13.5069 10.1117 13.2737 10.0151 13.1018 9.84323C12.9299 9.67132 12.8333 9.43816 12.8333 9.19505C12.8333 8.95193 12.9299 8.71878 13.1018 8.54687C13.2737 8.37496 13.5069 8.27838 13.75 8.27838C13.9931 8.27838 14.2263 8.37496 14.3982 8.54687C14.5701 8.71878 14.6667 8.95193 14.6667 9.19505C14.6667 9.43816 14.5701 9.67132 14.3982 9.84323C14.2263 10.0151 13.9931 10.1117 13.75 10.1117ZM15.5833 11.945C15.3402 11.945 15.1071 11.8485 14.9352 11.6766C14.7632 11.5047 14.6667 11.2715 14.6667 11.0284C14.6667 10.7853 14.7632 10.5521 14.9352 10.3802C15.1071 10.2083 15.3402 10.1117 15.5833 10.1117C15.8264 10.1117 16.0596 10.2083 16.2315 10.3802C16.4034 10.5521 16.5 10.7853 16.5 11.0284C16.5 11.2715 16.4034 11.5047 16.2315 11.6766C16.0596 11.8485 15.8264 11.945 15.5833 11.945ZM17.4167 10.1117C17.1736 10.1117 16.9404 10.0151 16.7685 9.84323C16.5966 9.67132 16.5 9.43816 16.5 9.19505C16.5 8.95193 16.5966 8.71878 16.7685 8.54687C16.9404 8.37496 17.1736 8.27838 17.4167 8.27838C17.6598 8.27838 17.8929 8.37496 18.0648 8.54687C18.2368 8.71878 18.3333 8.95193 18.3333 9.19505C18.3333 9.43816 18.2368 9.67132 18.0648 9.84323C17.8929 10.0151 17.6598 10.1117 17.4167 10.1117Z" fill="#46467C"/>
</svg>
