<svg width="16" height="27" viewBox="0 0 16 27" fill="none" xmlns="http://www.w3.org/2000/svg">
<path d="M3.07609 0.530436L14.6765 12.1903C14.8142 12.3291 14.9113 12.4793 14.9678 12.6408C15.0252 12.8023 15.0536 12.9752 15.0528 13.1596C15.0521 13.3439 15.0223 13.5166 14.9636 13.6777C14.9058 13.8387 14.8075 13.9881 14.6687 14.1258L2.97428 25.7261C2.6504 26.0474 2.24653 26.207 1.76266 26.2051C1.27879 26.2031 0.864746 26.0286 0.520524 25.6816C0.176301 25.3346 0.00511999 24.9307 0.006982 24.4698C0.00884401 24.009 0.183283 23.6065 0.530299 23.2623L10.7326 13.1421L0.612414 2.93985C0.291139 2.61597 0.131455 2.21809 0.133361 1.74621C0.135272 1.2734 0.309734 0.864882 0.656751 0.520661C1.00377 0.176437 1.40769 0.00525809 1.86851 0.00712009C2.32934 0.0089821 2.73186 0.18342 3.07609 0.530436Z" fill="#46467C"/>
</svg>
