<svg width="13" height="14" viewBox="0 0 13 14" fill="none" xmlns="http://www.w3.org/2000/svg">
<path d="M10.0113 3.73L10.9194 2.82187L11.8031 3.70563L10.895 4.61375C11.6906 5.60945 12.1244 6.84582 12.1255 8.12033C12.1266 9.39483 11.6948 10.6319 10.9008 11.6289C10.1069 12.626 8.99794 13.3238 7.75556 13.6082C6.51319 13.8926 5.21107 13.7466 4.06249 13.1942C2.91392 12.6418 1.98699 11.7157 1.43353 10.5677C0.880081 9.41958 0.732918 8.1176 1.01615 6.87496C1.29938 5.63232 1.99622 4.52271 2.99252 3.72787C3.98881 2.93304 5.2255 2.50011 6.50001 2.5C7.82813 2.5 9.04876 2.96 10.0113 3.73ZM6.50001 12.5C7.07454 12.5 7.64345 12.3868 8.17425 12.167C8.70505 11.9471 9.18734 11.6248 9.5936 11.2186C9.99986 10.8123 10.3221 10.33 10.542 9.79924C10.7618 9.26844 10.875 8.69953 10.875 8.125C10.875 7.55047 10.7618 6.98156 10.542 6.45076C10.3221 5.91996 9.99986 5.43766 9.5936 5.03141C9.18734 4.62515 8.70505 4.30289 8.17425 4.08303C7.64345 3.86316 7.07454 3.75 6.50001 3.75C5.33968 3.75 4.22689 4.21094 3.40642 5.03141C2.58594 5.85188 2.12501 6.96468 2.12501 8.125C2.12501 9.28532 2.58594 10.3981 3.40642 11.2186C4.22689 12.0391 5.33968 12.5 6.50001 12.5ZM5.87501 5H7.12501V8.75H5.87501V5ZM4.00001 0.625H9.00001V1.875H4.00001V0.625Z" fill="white"/>
</svg>
