<svg width="12" height="14" viewBox="0 0 12 14" fill="none" xmlns="http://www.w3.org/2000/svg">
<path d="M7.5 0.4375H3.75V1.6875H7.5V0.4375ZM5 8.5625H6.25V4.8125H5V8.5625ZM10.0188 4.43125L10.9062 3.54375C10.6375 3.225 10.3438 2.925 10.025 2.6625L9.1375 3.55C8.14213 2.74886 6.90272 2.31221 5.625 2.3125C2.51875 2.3125 0 4.83125 0 7.9375C0 11.0437 2.5125 13.5625 5.625 13.5625C6.68394 13.5631 7.72151 13.2645 8.61821 12.7012C9.5149 12.1379 10.2342 11.3328 10.6934 10.3786C11.1525 9.42436 11.3328 8.35985 11.2135 7.30766C11.0941 6.25546 10.68 5.25838 10.0188 4.43125ZM5.625 12.3125C3.20625 12.3125 1.25 10.3562 1.25 7.9375C1.25 5.51875 3.20625 3.5625 5.625 3.5625C8.04375 3.5625 10 5.51875 10 7.9375C10 10.3562 8.04375 12.3125 5.625 12.3125Z" fill="#282878"/>
</svg>
