<svg width="32" height="32" viewBox="0 0 32 32" fill="none" xmlns="http://www.w3.org/2000/svg">
<path d="M26.1517 17.7382V9.4813C26.1518 9.37704 26.1274 9.27378 26.0799 9.17745C26.0325 9.08112 25.9628 8.99361 25.875 8.91993L20.9264 4.76177C20.7497 4.6131 20.51 4.52948 20.2599 4.5293H1.94319C1.69304 4.5293 1.45314 4.6128 1.27625 4.76142C1.09937 4.91005 1 5.11164 1 5.32183V30.1545C1 30.3647 1.09937 30.5663 1.27625 30.7149C1.45314 30.8636 1.69304 30.947 1.94319 30.947H12.0039M7.28793 15.0964H19.8638M7.28793 9.81285H13.5759M7.28793 20.3799H12.0039M22.9354 24.2634L24.5074 22.9425C24.671 22.8047 24.8653 22.6954 25.0792 22.6208C25.2931 22.5462 25.5224 22.5078 25.754 22.5078C25.9856 22.5078 26.2149 22.5462 26.4288 22.6208C26.6427 22.6954 26.837 22.8047 27.0006 22.9425C27.1643 23.0799 27.2942 23.243 27.3829 23.4227C27.4715 23.6023 27.5171 23.7948 27.5171 23.9893C27.5171 24.1837 27.4715 24.3763 27.3829 24.5559C27.2942 24.7355 27.1643 24.8987 27.0006 25.0361L25.4286 26.357L22.9354 24.262L18.2336 28.2128C17.9986 28.411 17.8444 28.6668 17.7935 28.9433L17.4099 30.9999L19.8575 30.6789C20.1866 30.6361 20.491 30.5066 20.7268 30.3091L25.427 26.357" stroke="#46467C" stroke-width="1.5" stroke-linecap="round" stroke-linejoin="round"/>
<path d="M22.6161 1V6.98802C22.6161 7.26828 22.7486 7.53706 22.9844 7.73523C23.2203 7.9334 23.5401 8.04473 23.8737 8.04473H31" stroke="#46467C" stroke-width="1.5" stroke-linecap="round" stroke-linejoin="round"/>
</svg>
