<svg width="20" height="21" viewBox="0 0 20 21" fill="none" xmlns="http://www.w3.org/2000/svg">
<path d="M11.924 20.5224H8.07603C7.8195 20.5224 7.59717 20.4369 7.40905 20.2659C7.22093 20.0948 7.10976 19.8811 7.07556 19.6245L6.76772 17.2388C6.5454 17.1533 6.33607 17.0507 6.13974 16.931C5.94272 16.8113 5.75015 16.683 5.56203 16.5462L3.33022 17.4697C3.0908 17.5552 2.85137 17.5637 2.61194 17.4953C2.37251 17.4269 2.18439 17.2816 2.04757 17.0592L0.149254 13.75C0.0124378 13.5277 -0.0303172 13.2882 0.0209888 13.0317C0.0722948 12.7752 0.20056 12.57 0.405784 12.416L2.32976 10.9538C2.31266 10.8341 2.3041 10.7185 2.3041 10.607V9.91436C2.3041 9.80354 2.31266 9.68828 2.32976 9.56856L0.405784 8.10634C0.20056 7.95242 0.0722948 7.7472 0.0209888 7.49067C-0.0303172 7.23414 0.0124378 6.99471 0.149254 6.77239L2.04757 3.46315C2.16729 3.22372 2.35096 3.07391 2.5986 3.01371C2.84692 2.9542 3.0908 2.9672 3.33022 3.05271L5.56203 3.97621C5.75015 3.8394 5.94683 3.71113 6.15205 3.59142C6.35728 3.4717 6.5625 3.36909 6.76772 3.28358L7.07556 0.897854C7.10976 0.641325 7.22093 0.42755 7.40905 0.25653C7.59717 0.0855099 7.8195 0 8.07603 0H11.924C12.1805 0 12.4028 0.0855099 12.591 0.25653C12.7791 0.42755 12.8902 0.641325 12.9244 0.897854L13.2323 3.28358C13.4546 3.36909 13.6643 3.4717 13.8613 3.59142C14.0576 3.71113 14.2498 3.8394 14.438 3.97621L16.6698 3.05271C16.9092 2.9672 17.1486 2.95864 17.3881 3.02705C17.6275 3.09546 17.8156 3.24083 17.9524 3.46315L19.8507 6.77239C19.9876 6.99471 20.0303 7.23414 19.979 7.49067C19.9277 7.7472 19.7994 7.95242 19.5942 8.10634L17.6702 9.56856C17.6873 9.68828 17.6959 9.80354 17.6959 9.91436V10.607C17.6959 10.7185 17.6788 10.8341 17.6446 10.9538L19.5686 12.416C19.7738 12.57 19.9021 12.7752 19.9534 13.0317C20.0047 13.2882 19.9619 13.5277 19.8251 13.75L17.9268 17.0336C17.79 17.2559 17.5977 17.4057 17.3501 17.483C17.1018 17.5596 16.8579 17.5552 16.6185 17.4697L14.438 16.5462C14.2498 16.683 14.0532 16.8113 13.8479 16.931C13.6427 17.0507 13.4375 17.1533 13.2323 17.2388L12.9244 19.6245C12.8902 19.8811 12.7791 20.0948 12.591 20.2659C12.4028 20.4369 12.1805 20.5224 11.924 20.5224ZM10.0513 13.8526C11.0432 13.8526 11.8898 13.502 12.591 12.8008C13.2921 12.0997 13.6427 11.2531 13.6427 10.2612C13.6427 9.26928 13.2921 8.42273 12.591 7.72155C11.8898 7.02037 11.0432 6.66978 10.0513 6.66978C9.04229 6.66978 8.19129 7.02037 7.49832 7.72155C6.80603 8.42273 6.45989 9.26928 6.45989 10.2612C6.45989 11.2531 6.80603 12.0997 7.49832 12.8008C8.19129 13.502 9.04229 13.8526 10.0513 13.8526Z" fill="#282878"/>
</svg>
