<svg width="22" height="22" viewBox="0 0 22 22" fill="none" xmlns="http://www.w3.org/2000/svg">
<path d="M1 18.7778V3.22222C1 2.63285 1.26339 2.06762 1.73223 1.65087C2.20107 1.23413 2.83696 1 3.5 1H20.25C20.4489 1 20.6397 1.07024 20.7803 1.19526C20.921 1.32029 21 1.48986 21 1.66667V16.2378" stroke="#46467C" stroke-width="1.5" stroke-linecap="round"/>
<path d="M6 1V9.88889L9.125 8.11111L12.25 9.88889V1" stroke="#46467C" stroke-width="1.5" stroke-linecap="round" stroke-linejoin="round"/>
<path d="M3.5 16.5554H21M3.5 20.9999H21" stroke="#46467C" stroke-width="1.5" stroke-linecap="round"/>
<path d="M3.5 20.9999C2.83696 20.9999 2.20107 20.7657 1.73223 20.349C1.26339 19.9322 1 19.367 1 18.7776C1 18.1883 1.26339 17.623 1.73223 17.2063C2.20107 16.7895 2.83696 16.5554 3.5 16.5554" stroke="#46467C" stroke-width="1.5" stroke-linecap="round" stroke-linejoin="round"/>
</svg>
