<svg width="10" height="10" viewBox="0 0 10 10" fill="none" xmlns="http://www.w3.org/2000/svg">
<g clip-path="url(#clip0_480_120)">
<path fill-rule="evenodd" clip-rule="evenodd" d="M5.00001 0.520752C2.52626 0.520752 0.520844 2.52617 0.520844 4.99992C0.520844 5.77325 0.717093 6.502 1.06251 7.13742L0.734594 8.90117C0.725366 8.95101 0.728401 9.00235 0.743437 9.05075C0.758473 9.09916 0.785059 9.14318 0.820901 9.17903C0.856743 9.21487 0.900766 9.24146 0.949173 9.25649C0.99758 9.27153 1.04892 9.27456 1.09876 9.26534L2.86251 8.937C3.51838 9.29383 4.25336 9.48023 5.00001 9.47908C7.47376 9.47908 9.47918 7.47367 9.47918 4.99992C9.47918 2.52617 7.47376 0.520752 5.00001 0.520752ZM6.88751 4.38742C6.91821 4.35881 6.94284 4.32431 6.95992 4.28598C6.977 4.24764 6.98618 4.20626 6.98692 4.1643C6.98766 4.12234 6.97994 4.08066 6.96423 4.04175C6.94851 4.00284 6.92512 3.96749 6.89544 3.93782C6.86577 3.90814 6.83042 3.88475 6.79151 3.86903C6.7526 3.85332 6.71092 3.8456 6.66896 3.84634C6.627 3.84708 6.58562 3.85626 6.54729 3.87334C6.50895 3.89042 6.47445 3.91505 6.44584 3.94575L4.58334 5.80825L3.55418 4.77909C3.49494 4.72389 3.41658 4.69383 3.33563 4.69526C3.25467 4.69669 3.17742 4.72949 3.12017 4.78674C3.06291 4.844 3.03012 4.92124 3.02869 5.0022C3.02726 5.08316 3.05731 5.16151 3.11251 5.22075L4.36251 6.47075C4.4211 6.52927 4.50053 6.56214 4.58334 6.56214C4.66616 6.56214 4.74558 6.52927 4.80418 6.47075L6.88751 4.38742Z" fill="#46467C"/>
</g>
<defs>
<clipPath id="clip0_480_120">
<rect width="10" height="10" fill="white"/>
</clipPath>
</defs>
</svg>
