<svg width="30" height="30" viewBox="0 0 30 30" fill="none" xmlns="http://www.w3.org/2000/svg">
<g clip-path="url(#clip0_480_108)" filter="url(#filter0_i_480_108)">
<path fill-rule="evenodd" clip-rule="evenodd" d="M28.75 15C28.75 13.7062 28.0875 12.4125 26.7612 11.6912L10.7463 2.98123C8.1675 1.57998 5 3.40498 5 6.29123V15H28.75Z" fill="#46467C"/>
<path opacity="0.5" d="M10.7463 27.0187L26.7612 18.3088C27.3625 17.9904 27.8654 17.5141 28.2159 16.931C28.5663 16.348 28.751 15.6803 28.75 15H5V23.7087C5 26.5962 8.1675 28.42 10.7463 27.0187Z" fill="#46467C"/>
<path fill-rule="evenodd" clip-rule="evenodd" d="M28.75 15C28.75 13.7062 28.0875 12.4125 26.7612 11.6912L10.7463 2.98123C8.1675 1.57998 5 3.40498 5 6.29123V15H28.75Z" fill="#46467C"/>
<path opacity="0.5" d="M10.7463 27.0187L26.7612 18.3088C27.3625 17.9904 27.8654 17.5141 28.2159 16.931C28.5663 16.348 28.751 15.6803 28.75 15H5V23.7087C5 26.5962 8.1675 28.42 10.7463 27.0187Z" fill="#46467C"/>
</g>
<defs>
<filter id="filter0_i_480_108" x="0" y="0" width="30" height="34" filterUnits="userSpaceOnUse" color-interpolation-filters="sRGB">
<feFlood flood-opacity="0" result="BackgroundImageFix"/>
<feBlend mode="normal" in="SourceGraphic" in2="BackgroundImageFix" result="shape"/>
<feColorMatrix in="SourceAlpha" type="matrix" values="0 0 0 0 0 0 0 0 0 0 0 0 0 0 0 0 0 0 127 0" result="hardAlpha"/>
<feOffset dy="4"/>
<feGaussianBlur stdDeviation="2"/>
<feComposite in2="hardAlpha" operator="arithmetic" k2="-1" k3="1"/>
<feColorMatrix type="matrix" values="0 0 0 0 0 0 0 0 0 0 0 0 0 0 0 0 0 0 0.25 0"/>
<feBlend mode="normal" in2="shape" result="effect1_innerShadow_480_108"/>
</filter>
<clipPath id="clip0_480_108">
<rect width="30" height="30" fill="white"/>
</clipPath>
</defs>
</svg>
