
<svg width="24" height="19" viewBox="0 0 24 19" fill="none" xmlns="http://www.w3.org/2000/svg">
<path d="M16.1818 8.21429C17.9173 8.21429 19.3077 6.49143 19.3077 4.35714C19.3077 2.22286 17.9173 0.5 16.1818 0.5C14.4464 0.5 13.0455 2.22286 13.0455 4.35714C13.0455 6.49143 14.4464 8.21429 16.1818 8.21429ZM7.81818 8.21429C9.55364 8.21429 10.9441 6.49143 10.9441 4.35714C10.9441 2.22286 9.55364 0.5 7.81818 0.5C6.08273 0.5 4.68182 2.22286 4.68182 4.35714C4.68182 6.49143 6.08273 8.21429 7.81818 8.21429ZM7.81818 10.7857C5.38227 10.7857 0.5 12.29 0.5 15.2857V18.5H15.1364V15.2857C15.1364 12.29 10.2541 10.7857 7.81818 10.7857ZM16.1818 10.7857C15.8786 10.7857 15.5336 10.8114 15.1677 10.85C16.3805 11.93 17.2273 13.3829 17.2273 15.2857V18.5H23.5V15.2857C23.5 12.29 18.6177 10.7857 16.1818 10.7857Z" fill="#46467C"/>
</svg>
